<?xml version="1.0" encoding="utf-8"?>
<!-- Generator: Adobe Illustrator 25.0.0, SVG Export Plug-In . SVG Version: 6.00 Build 0)  -->
<svg version="1.1" id="Layer_1" xmlns="http://www.w3.org/2000/svg" xmlns:xlink="http://www.w3.org/1999/xlink" x="0px" y="0px"
	 viewBox="0 0 480 480" style="enable-background:new 0 0 480 480;" xml:space="preserve">
<style type="text/css">
	.st0{fill:none;stroke:#FFDE17;stroke-width:23;stroke-miterlimit:10;}
	.st1{fill:none;stroke:#00A14B;stroke-width:23;stroke-miterlimit:10;}
	.st2{fill:none;stroke:#21409A;stroke-width:23;stroke-miterlimit:10;}
	.st3{fill:none;stroke:#ED1C24;stroke-width:23;stroke-miterlimit:10;}
</style>
<g>
	<line class="st0" x1="80" y1="265" x2="80" y2="265"/>
	<line class="st0" x1="60" y1="300" x2="60" y2="180"/>
	<line class="st0" x1="60" y1="300" x2="180" y2="300"/>
	<line class="st0" x1="60" y1="240" x2="180" y2="240"/>
	<line class="st1" x1="300" y1="420" x2="180" y2="420"/>
	<line class="st1" x1="300" y1="420" x2="300" y2="300"/>
	<line class="st1" x1="240" y1="420" x2="240" y2="300"/>
	<line class="st1" x1="180" y1="420" x2="180" y2="300"/>
	<line class="st2" x1="420" y1="180" x2="420" y2="300"/>
	<line class="st2" x1="420" y1="180" x2="300" y2="180"/>
	<line class="st2" x1="420" y1="240" x2="300" y2="240"/>
	<line class="st2" x1="420" y1="300" x2="300" y2="300"/>
	<line class="st3" x1="180" y1="60" x2="300" y2="60"/>
	<line class="st3" x1="180" y1="60" x2="180" y2="180"/>
	<line class="st3" x1="240" y1="60" x2="240" y2="180"/>
	<line class="st3" x1="300" y1="60" x2="300" y2="180"/>
	<line class="st0" x1="60" y1="180" x2="180" y2="180"/>
</g>
</svg>
